<svg width="30" height="30" viewBox="0 0 30 30" fill="none" xmlns="http://www.w3.org/2000/svg">
<path d="M11.5234 25.9148L11.5526 25.9277L11.3818 24.6323L11.3799 24.6318L11.1101 24.7158C11.1031 24.6934 11.0956 24.669 11.0875 24.6429M11.5234 25.9148L11.159 24.8498C11.1579 24.8467 11.1573 24.8449 11.156 24.8417C11.1545 24.8379 11.1522 24.8322 11.1472 24.8202C11.1371 24.7952 11.1243 24.7628 11.11 24.7167L11.0875 24.6442V24.6429M11.5234 25.9148L11.5148 25.911C11.4732 25.8843 11.4228 25.8402 11.3623 25.7618C11.2374 25.5998 11.0905 25.3282 10.9189 24.7762L10.9188 24.776C10.6065 23.7724 9.22776 19.1723 8.99666 18.4012L8.97387 18.3252L8.90005 18.0789L8.65683 17.9957L3.34716 16.1784L3.32837 16.169L3.28326 16.1567C3.28276 16.1565 3.28203 16.1563 3.28106 16.156C3.27705 16.1548 3.26918 16.1523 3.25796 16.1485C3.23544 16.1409 3.19996 16.128 3.15557 16.1091C3.06576 16.0708 2.94525 16.0104 2.82301 15.9231C2.57956 15.7494 2.35448 15.4904 2.30561 15.0946C2.28262 14.9084 2.34437 14.7164 2.43889 14.5757C2.53897 14.4267 2.66499 14.3178 2.8042 14.2208C2.94005 14.1261 3.07805 14.0545 3.18356 14.0064C3.23566 13.9826 3.27818 13.9653 3.30636 13.9544C3.31191 13.9523 3.31689 13.9504 3.32126 13.9487L3.32155 13.9494L3.36139 13.9342L3.36095 13.933L3.40284 13.915L3.58584 13.8365L4.28115 13.5383L6.76872 12.4715C8.83074 11.5873 11.5881 10.4052 14.3696 9.2135C17.1511 8.0218 19.9569 6.82006 22.1153 5.89725C24.2781 4.97256 25.731 4.35246 25.9791 4.25274C26.2049 4.16233 26.4316 4.10082 26.6481 4.09132C26.859 4.08207 27.0602 4.12168 27.2513 4.23566C27.4188 4.33556 27.5723 4.53253 27.6358 4.7722C27.703 5.02582 27.7008 5.33423 27.6108 5.744L27.6107 5.74397L27.6082 5.75696L23.7038 26.107L23.7 26.1167L23.7 26.1167L23.6995 26.118L23.6994 26.1182L23.6993 26.1185L23.6993 26.1186L23.6966 26.1252C23.6933 26.133 23.6873 26.1468 23.6784 26.1657C23.6605 26.2035 23.6314 26.2603 23.5901 26.3277C23.5063 26.4642 23.3785 26.6337 23.2004 26.7786C22.8768 27.0419 22.2347 27.2417 21.4793 26.9073C21.4786 26.907 21.4779 26.9066 21.4771 26.9063L21.4685 26.9023L16.1899 22.7866L15.8543 22.5249L15.5424 22.8143L12.2771 25.8429L12.2761 25.8437C12.2753 25.8442 12.274 25.8451 12.2723 25.8463C12.266 25.8507 12.2537 25.8589 12.2363 25.8692C12.2009 25.8902 12.1478 25.9179 12.0825 25.9412C12.0134 25.9658 11.9369 25.9836 11.8555 25.9862L12.1201 24.7964L13.0869 20.4488L13.0988 20.3952V20.3795C13.1011 20.3722 13.1042 20.3651 13.1081 20.3585L13.1095 20.3562C13.1112 20.3533 13.113 20.3505 13.115 20.3478L13.1151 20.3479L13.1221 20.3376C13.1223 20.3374 13.1224 20.3372 13.1226 20.337L13.1275 20.3312L20.549 11.5996L19.8906 10.8598L9.40936 17.8477L9.10153 18.0529L9.20779 18.4073L9.23365 18.4936C9.49538 19.3665 10.7522 23.5583 11.0875 24.6429M11.5234 25.9148L11.5239 25.9161L11.1467 24.5672H11.0875V24.5684V24.6429M11.2488 26.3344L11.3742 26.1363L10.9664 26.0672C11.0545 26.1814 11.1468 26.2698 11.2488 26.3344ZM11.2488 26.3344C11.2802 26.3542 11.3128 26.3703 11.3455 26.3845L11.3742 26.2962V26.1364L11.2488 26.3344ZM11.4621 26.4234C11.5496 26.454 11.635 26.4721 11.717 26.4806L11.581 26.083L11.56 26.0218L11.5291 26.1143L11.4276 26.4172C11.4313 26.4179 11.435 26.4185 11.439 26.4192C11.4456 26.4203 11.453 26.4215 11.4621 26.4234ZM11.546 25.981L11.4169 26.3006L11.4228 26.277L11.5448 25.9773L11.546 25.981ZM11.5024 25.913C11.5018 25.9129 11.5041 25.9134 11.5071 25.9142L11.5043 25.9135L11.503 25.9132L11.5026 25.9131L11.5024 25.913ZM11.745 26.4832C12.2224 26.5207 12.5801 26.2406 12.5801 26.2406L11.745 26.4832ZM27.4098 5.72829L27.4101 5.72755L27.4157 5.70169C27.4988 5.32306 27.496 5.02572 27.4423 4.82312C27.4336 4.79028 27.4229 4.75345 27.4091 4.71689C27.3956 4.68115 27.3732 4.62891 27.335 4.57462C27.2461 4.44833 27.0991 4.37753 27.1483 4.40692C27.0354 4.33955 26.9118 4.32443 26.8679 4.31923C26.7966 4.31079 26.7172 4.30843 26.6347 4.31226C26.4701 4.31988 26.2642 4.35344 26.0536 4.43779L26.053 4.43804C25.9143 4.4938 24.3468 5.16142 22.1945 6.08167C20.0363 7.0044 17.2306 8.20537 14.4492 9.39705C11.6677 10.5887 8.91027 11.7709 6.84817 12.6551L4.36045 13.722L3.66508 14.0202L3.48205 14.0987L3.43514 14.1189L3.42327 14.1239L3.42266 14.1242L3.41798 14.1261L3.41015 14.1289L3.41013 14.1289L3.40348 14.1313L3.57657 14.6004C3.40348 14.1313 3.40342 14.1313 3.40336 14.1314L3.40324 14.1314L3.40298 14.1315L3.4024 14.1317L3.40103 14.1322L3.39739 14.1336L3.38671 14.1377C3.37815 14.141 3.3667 14.1455 3.35284 14.1512C3.32522 14.1626 3.2874 14.1788 3.24325 14.1995C3.15726 14.2398 3.03663 14.3021 2.91807 14.3847C2.80128 14.4661 2.67891 14.577 2.60487 14.6872L2.60483 14.6873L2.58682 14.7142C2.5839 14.7187 2.57808 14.7276 2.57167 14.7383C2.56624 14.7475 2.55269 14.7705 2.53949 14.8013C2.52546 14.8341 2.50505 14.8908 2.49971 14.9646C2.49558 15.0217 2.50189 15.0699 2.50902 15.1041C2.54535 15.306 2.67179 15.4505 2.73372 15.5163C2.81684 15.6045 2.91289 15.6813 2.99232 15.7395C3.07438 15.7997 3.15348 15.8506 3.21095 15.886C3.24006 15.904 3.26453 15.9185 3.2822 15.9288L3.30356 15.9411L3.31005 15.9447L3.31217 15.9459L3.31294 15.9464L3.31325 15.9465L3.31339 15.9466C3.31345 15.9466 3.31351 15.9467 3.55664 15.5098L3.31351 15.9467L3.35248 15.9684L3.39468 15.9828L8.74429 17.8145L8.97803 17.8945L9.1836 17.7574L23.3445 8.31681L23.3448 8.31664C23.3605 8.30615 23.3789 8.30032 23.3977 8.29984C23.417 8.29933 23.4361 8.30444 23.4526 8.31454C23.4691 8.32464 23.4823 8.3393 23.4906 8.35675C23.4989 8.3742 23.502 8.39368 23.4995 8.41285C23.497 8.43201 23.489 8.45005 23.4765 8.46476L23.4761 8.46525L13.6897 19.9789L13.3456 20.3838L13.7706 20.7027L15.512 22.0093L15.6878 22.1412L21.4953 26.6701L21.5479 26.7111L21.6094 26.7369C21.93 26.8713 22.2173 26.9335 22.4869 26.8965C22.77 26.8577 22.9572 26.7192 23.0746 26.6238C23.2172 26.5077 23.3165 26.3804 23.3814 26.2811C23.4142 26.2308 23.4393 26.1858 23.4577 26.1504C23.4669 26.1326 23.4744 26.1172 23.4802 26.1048C23.4857 26.093 23.4906 26.0821 23.4901 26.083L23.5143 26.0294L23.5254 25.9716L27.4098 5.72829ZM2.52219 15.1561C2.52204 15.1556 2.52089 15.1514 2.51922 15.1449C2.52152 15.1533 2.52235 15.1565 2.52219 15.1561ZM13.8845 21.0384L13.2644 20.573L13.0963 21.3299L12.4705 24.1471L12.1229 25.712L13.2985 24.6222L15.2579 22.8057L15.6971 22.3986L15.2181 22.0392L13.8845 21.0384Z" fill="black" stroke="black"/>
</svg>
