<svg width="28" height="47" viewBox="0 0 28 47" fill="none" xmlns="http://www.w3.org/2000/svg">
<path d="M14 37.7063C13.7048 37.3558 13.36 36.9405 12.9772 36.4688C11.684 34.8754 9.96224 32.6461 8.24345 30.0985C6.52177 27.5468 4.82159 24.703 3.5564 21.8789C2.28241 19.0352 1.5 16.3215 1.5 14C1.5 7.09843 7.09843 1.5 14 1.5C20.9016 1.5 26.5 7.09843 26.5 14C26.5 16.3215 25.7176 19.0352 24.4436 21.8789C23.1784 24.703 21.4782 27.5468 19.7566 30.0985C18.0378 32.6461 16.316 34.8754 15.0228 36.4688C14.64 36.9405 14.2952 37.3558 14 37.7063ZM7.5 14C7.5 17.5884 10.4116 20.5 14 20.5C17.5884 20.5 20.5 17.5884 20.5 14C20.5 10.4116 17.5884 7.5 14 7.5C10.4116 7.5 7.5 10.4116 7.5 14Z" stroke="black" stroke-width="3"/>
<line y1="-1.5" x2="15.8114" y2="-1.5" transform="matrix(0.822192 -0.56921 0.822192 0.56921 14 47)" stroke="black" stroke-width="3"/>
<line y1="-1.5" x2="7.02728" y2="-1.5" transform="matrix(-0.822192 -0.56921 0.822192 -0.56921 27 38)" stroke="black" stroke-width="3"/>
<line y1="-1.5" x2="15.8114" y2="-1.5" transform="matrix(-0.822192 -0.56921 -0.822192 0.56921 14 47)" stroke="black" stroke-width="3"/>
<line y1="-1.5" x2="7.02728" y2="-1.5" transform="matrix(0.822192 -0.56921 -0.822192 -0.56921 1 38)" stroke="black" stroke-width="3"/>
</svg>
