<svg width="34" height="29" viewBox="0 0 34 29" fill="none" xmlns="http://www.w3.org/2000/svg">
<path fill-rule="evenodd" clip-rule="evenodd" d="M19.4229 3.14511C19.4229 4.92485 18.155 6.37853 16.5894 6.37853C15.0239 6.37853 13.7624 4.93164 13.7559 3.1587C13.7495 1.41292 15.0304 0 16.5894 0C18.155 0 19.4229 1.39254 19.4229 3.14511ZM14.9398 3.1587C14.9398 4.2999 15.6967 5.18977 16.5894 5.18977C17.4887 5.18977 18.2391 4.28632 18.2391 3.14511C18.2391 2.03108 17.4951 1.18876 16.5894 1.18876C15.6902 1.18876 14.9333 2.04466 14.9398 3.1587ZM20.6197 12.6959H12.5527C11.4335 12.6959 10.8965 12.3223 10.8965 11.5208C10.8965 9.65271 13.1219 7.16651 16.5894 7.16651C20.0569 7.16651 22.2759 9.65271 22.2759 11.5208C22.2759 12.3223 21.7389 12.6959 20.6197 12.6959ZM12.1386 11.3306C12.1386 11.4528 12.1969 11.5072 12.3521 11.5072H20.8203C20.9755 11.5072 21.0338 11.4528 21.0338 11.3306C21.0338 10.2912 19.4359 8.35526 16.5894 8.35526C13.7365 8.35526 12.1386 10.2912 12.1386 11.3306ZM30.5264 19.4351C30.5264 21.2148 29.2584 22.6685 27.6929 22.6685C26.1273 22.6685 24.8659 21.2216 24.8594 19.4486C24.8529 17.7029 26.1338 16.2899 27.6929 16.2899C29.2584 16.2899 30.5264 17.6825 30.5264 19.4351ZM26.0432 19.4486C26.0432 20.5899 26.8001 21.4797 27.6929 21.4797C28.5921 21.4797 29.3425 20.5763 29.3425 19.4351C29.3425 18.321 28.5986 17.4787 27.6929 17.4787C26.7937 17.4787 26.0368 18.3346 26.0432 19.4486ZM31.7232 28.9859H23.6561C22.5369 28.9859 22 28.6123 22 27.8107C22 25.9427 24.2254 23.4565 27.6929 23.4565C31.1604 23.4565 33.3793 25.9427 33.3793 27.8107C33.3793 28.6123 32.8424 28.9859 31.7232 28.9859ZM23.2421 27.6205C23.2421 27.7428 23.3003 27.7971 23.4556 27.7971H31.9237C32.079 27.7971 32.1372 27.7428 32.1372 27.6205C32.1372 26.5812 30.5393 24.6452 27.6929 24.6452C24.84 24.6452 23.2421 26.5812 23.2421 27.6205ZM5.69289 22.6685C7.25843 22.6685 8.5264 21.2148 8.5264 19.4351C8.5264 17.6825 7.25843 16.2899 5.69289 16.2899C4.13381 16.2899 2.85291 17.7029 2.85938 19.4486C2.86585 21.2216 4.12735 22.6685 5.69289 22.6685ZM5.69289 21.4797C4.80014 21.4797 4.04325 20.5899 4.04325 19.4486C4.03678 18.3346 4.79367 17.4787 5.69289 17.4787C6.59858 17.4787 7.34253 18.321 7.34253 19.4351C7.34253 20.5763 6.59211 21.4797 5.69289 21.4797ZM1.65611 28.9859H9.7232C10.8424 28.9859 11.3793 28.6123 11.3793 27.8107C11.3793 25.9427 9.16038 23.4565 5.69289 23.4565C2.2254 23.4565 0 25.9427 0 27.8107C0 28.6123 0.536943 28.9859 1.65611 28.9859ZM1.45557 27.7971C1.30031 27.7971 1.24209 27.7428 1.24209 27.6205C1.24209 26.5812 2.83998 24.6452 5.69289 24.6452C8.53933 24.6452 10.1372 26.5812 10.1372 27.6205C10.1372 27.7428 10.079 27.7971 9.92374 27.7971H1.45557ZM6.26657 8.79058C5.43532 10.3258 5 12.0441 5 13.7899H6.18503C6.18503 12.2411 6.57122 10.7168 7.30865 9.35481C8.04608 7.99283 9.11148 6.83622 10.4084 5.98965L9.7607 4.99731C8.29875 5.95159 7.09781 7.25533 6.26657 8.79058ZM22.591 4.60673C24.1179 5.45321 25.4096 6.66706 26.3493 8.13844C27.289 9.60982 27.847 11.2923 27.9727 13.0336L26.7908 13.1189C26.6792 11.5742 26.1842 10.0816 25.3506 8.77627C24.517 7.47095 23.371 6.39409 22.0164 5.64314L22.591 4.60673ZM16.5 23.2899C18.3431 23.2899 20.1538 22.8048 21.75 21.8832L21.1575 20.8569C19.7414 21.6745 18.1351 22.1049 16.5 22.1049C14.8649 22.1049 13.2586 21.6745 11.8425 20.8569L11.25 21.8832C12.8462 22.8048 14.6569 23.2899 16.5 23.2899Z" fill="black"/>
</svg>
